<svg width="237" height="214" viewBox="0 0 237 214" fill="none" xmlns="http://www.w3.org/2000/svg">
<path d="M113 0.899997C109 1.7 103 4.9 99.5 8.3C96.5 11.1 94.7 14 82.6 35.3C75.2 48.4 54.1 85.2 35.8 117.1C17.5 149 2.09998 176.2 1.69998 177.7C-0.800017 185.2 -0.500017 191.9 2.69998 198.8C6.29998 206.4 13.8 211.9 22.4 213.1C27.8 213.9 209.4 213.8 214.2 213C224.4 211.4 232.9 203.5 235.3 193.3C237 186.1 235.9 180.4 231.3 172.1C228.7 167.4 190.3 100.2 146.5 23.8C138.5 9.8 135.8 6.5 130.5 3.6C124.8 0.599998 119 -0.300003 113 0.899997ZM123.9 15C124.9 15.5 126.5 16.7 127.3 17.6C128.1 18.4 140.3 39.2 154.3 63.7C168.3 88.2 189 124.4 200.4 144.1C211.7 163.8 221.4 180.9 221.9 182.1C223 184.6 223.2 188.7 222.3 191.9C221.5 195 216.8 199.4 213.6 200.3C211.7 200.8 190.3 201 117 200.8L22.9 200.6L20.3 199.3C17 197.7 14.2 194.4 13.3 191.2C12.5 188.2 12.9 183.6 14.1 181.1C15.1 179.1 78 69.1 96.1 37.6C108 17 108.6 16.2 114 14.2C117.5 13.2 120.8 13.4 123.9 15Z" fill="#9A8866"/>
<path d="M87.3998 67.6C81.7998 69.8 77.8998 75.1 77.4998 81.3C77.0998 86.5 78.3998 90 81.9998 93.6C85.2998 96.9 88.5998 98.3 93.7998 98.3C104.6 98.3 112 87.6 108.5 77.2C105.6 68.8 95.6998 64.3 87.3998 67.6Z" fill="#9A8866"/>
<path d="M140.9 82.2C126.9 83.6 117.5 85.5 113.4 87.7C109.8 89.7 106.1 93.8 105.1 97.1C104.2 100.1 98.1998 135.7 98.1998 138.4C98.1998 140.8 99.4998 142.5 102.1 143.7L104.2 144.7L100.6 147.5C98.6998 149.1 96.9998 150.3 96.8998 150.3C96.6998 150.3 95.5998 148.9 94.2998 147.3C92.9998 145.7 91.7998 144.3 91.5998 144.3C91.3998 144.3 89.1998 145.7 86.8998 147.5L82.5998 150.7L78.9998 150.5C75.5998 150.3 75.0998 150.4 70.5998 152.7C67.2998 154.5 64.8998 155.3 62.4998 155.5C58.3998 156 56.7998 157.3 54.2998 161.8C51.5998 166.9 49.7998 168.6 45.3998 170.3C38.8998 172.8 37.0998 175.5 36.1998 183.8L35.7998 187.6H76.9998C99.6998 187.6 118.2 187.4 118.2 187.3C118.2 186.2 116.2 180.6 115.5 179.4C115 178.6 113.6 176.2 112.5 173.9C109.7 168 108.3 166.8 102 164.6L100.4 164L102.2 162.6C103.2 161.8 104 161 104 160.7C104 160.4 102.9 158.8 101.5 157.1C100.2 155.3 99.2998 153.8 99.4998 153.6C99.6998 153.4 106.2 148.2 114 141.9L128.2 130.6L129.7 132.1L131.3 133.6L124.5 141C120.7 145.1 117.2 149.2 116.7 150.1C115.3 152.7 115.5 158.8 117.1 161.9C117.8 163.3 118.8 164.9 119.3 165.5C119.8 166.1 123.7 172.8 127.8 180.5C135.9 195.3 136.8 196.4 140.6 196.4C141.6 196.4 143.1 196.1 143.9 195.7C145.7 194.8 147.7 191.7 147.7 190C147.7 189.2 144.4 182 140.3 174C130.5 154.5 130.5 154.8 140.6 147C143.9 144.4 146.8 142.4 147.1 142.4C147.3 142.4 148 147.5 148.7 153.8C149.8 164.4 150.2 166.2 153.5 177.5C155.5 184.2 157.5 190.3 158 191.1C159.4 193.1 162.4 194.9 164.1 194.9C165 194.9 166.3 194.3 167.4 193.3C169 191.9 169.2 191.4 169.4 188C169.6 184.6 169.3 183.3 166 173.2C161.9 160.7 161.9 160.5 163 145.9C163.5 139.8 163.5 136.7 163.1 133.6C162.1 127 161.5 125.6 158 121.8L154.8 118.2L156.4 116.3C162.3 109.5 165 92.8 161.2 87C160.5 86 158.7 84.5 157 83.7C154.3 82.3 153.6 82.2 148.2 82.3C145.4 81.9 141.9 82.1 140.9 82.2ZM150.6 95.6C150.4 96 149.5 98.7 148.6 101.6C147.6 104.6 146.6 107 146.4 107C146.1 107 143.9 104.9 141.4 102.2L136.9 97.4L142.1 96.3C148.1 94.8 150.9 94.6 150.6 95.6ZM120.3 122.2C123 124.9 125 127.3 124.8 127.6C124.3 128.5 110.7 139.3 110.7 138.9C110.7 138.6 111.6 133.9 112.6 128.3C113.6 122.7 114.5 118 114.5 117.7C114.6 116.7 115.7 117.7 120.3 122.2Z" fill="#9A8866"/>
</svg>
